<svg version="1" xmlns="http://www.w3.org/2000/svg" width="361.333" height="361.333" viewBox="0 0 271.000000 271.000000"><path d="M117.5 5.1c-27.5 3.8-55 17.5-75 37.3-10.8 10.7-17.8 20.4-24.6 33.9C7.9 96.1 4 112.7 4 135.6c0 23.1 3.8 39.9 13.5 59.2 18.9 37.8 54 63.9 95.5 71.3 11 2 36.6 1.7 46.9-.5 30.6-6.4 56.7-21.5 75.5-43.6 21.2-25 31.6-53.4 31.6-86 0-36-13.3-68.2-38.6-93.6-17.6-17.5-38.9-29.3-63.4-35-12-2.8-35.6-4-47.5-2.3zm28 59.9c13.6 2 22.4 8 27.7 18.8 3.1 6.2 3.3 7.3 3.3 17.2 0 9.3-.3 11.2-2.7 16.2-3.8 8.2-7.3 13-17.6 24.1-9.7 10.3-11.2 13.3-11.2 21.9v4.8h-9.5c-7.3 0-9.7-.3-10.1-1.4-.9-2.2 1.4-16.4 3.2-19.8.9-1.8 4.9-6.6 8.8-10.7 9-9.5 16.2-18.9 18.3-23.8 2.1-5 2.1-16.8.1-20.8-3.9-7.3-9.9-10.5-19.8-10.5-10.1.1-17.3 5.1-19.5 13.7l-1.2 4.8-8.7.3c-10.2.3-10.6-.1-8.8-8.7 2.9-13.8 14.1-23.2 31-26.1 6.7-1.1 8.8-1.1 16.7 0zm.3 132.2l-.3 10.3h-20l-.3-10.3-.3-10.2h21.2l-.3 10.2z"/></svg>